<svg width="54" height="55" viewBox="0 0 54 55" fill="none" xmlns="http://www.w3.org/2000/svg">
<path d="M53.325 53.3847H51.6827V0.684419C51.6827 0.306451 51.3804 0 51.0077 0H39.2436C38.8708 0 38.5686 0.306451 38.5686 0.684419V53.3847H33.5572V10.563C33.5572 10.1851 33.255 9.87862 32.8822 9.87862H21.1178C20.745 9.87862 20.4428 10.1851 20.4428 10.563V53.3847H15.4314V19.3121C15.4314 18.9341 15.1292 18.6277 14.7564 18.6277H2.99235C2.61958 18.6277 2.31735 18.9341 2.31735 19.3121V53.3847H0.675C0.302234 53.3847 0 53.6911 0 54.0691C0 54.447 0.302234 54.7535 0.675 54.7535H53.325C53.6978 54.7535 54 54.447 54 54.0691C54 53.6911 53.6978 53.3847 53.325 53.3847ZM39.9186 1.36884H50.3327V53.3847H39.9186V1.36884ZM21.7928 11.2475H32.2072V53.3847H21.7928V11.2475ZM3.66735 19.9965H14.0814V53.3847H3.66735V19.9965Z" fill="#2D68AC"/>
</svg>
