<svg width="54" height="54" viewBox="0 0 54 54" fill="none" xmlns="http://www.w3.org/2000/svg">
<path d="M40.0538 26.2947L18.1579 13.6533C17.9258 13.5195 17.6397 13.5195 17.4083 13.6533C17.1762 13.7871 17.0335 14.0349 17.0335 14.3026V39.5862C17.0335 39.8538 17.1762 40.1016 17.4083 40.2354C17.5244 40.3024 17.6541 40.3358 17.7831 40.3358C17.9122 40.3358 18.0419 40.3024 18.1579 40.2354L40.0538 27.594C40.286 27.4602 40.4287 27.2123 40.4287 26.9447C40.4287 26.6771 40.286 26.4286 40.0538 26.2947ZM18.5328 38.2869V15.6018L38.1791 26.9447L18.5328 38.2869ZM45.0746 0H8.92535C4.00422 0 0 4.00354 0 8.92535V45.0746C0 49.9958 4.00354 54 8.92535 54H45.0746C49.9958 54 54 49.9965 54 45.0746V8.92535C54 4.00422 49.9965 0 45.0746 0ZM52.5 45.074C52.5 49.1683 49.169 52.4994 45.0746 52.4994H8.92535C4.83101 52.4994 1.49996 49.1683 1.49996 45.074V8.92535C1.49996 4.83101 4.83101 1.49996 8.92535 1.49996H45.0746C49.169 1.49996 52.5 4.83101 52.5 8.92535V45.074Z" fill="#2D68AC"/>
</svg>
