<svg width="54" height="55" viewBox="0 0 54 55" fill="none" xmlns="http://www.w3.org/2000/svg">
<path d="M45.5187 14.6863L45.9815 15.1555L46.4442 14.6862L53.0229 8.01475C53.9003 11.3417 53.0557 15.0335 50.4871 17.6399L50.4869 17.6401C47.7504 20.4191 43.7972 21.1975 40.3579 20.0002L39.9699 19.8651L39.6814 20.1576L19.8732 40.2422L19.5917 40.5276L19.7203 40.9072C20.9046 44.4024 20.1317 48.42 17.39 51.1988L17.3897 51.1991C14.9149 53.7113 11.4533 54.5879 8.27662 53.852L14.7319 47.3077L15.1822 46.8512L14.7319 46.3947L8.48959 40.0665L8.02676 39.5973L7.56401 40.0665L0.985326 46.738C0.107769 43.4112 0.951573 39.7204 3.52107 37.1141L3.52125 37.1139C6.26127 34.3324 10.2147 33.5552 13.6507 34.7493L14.0386 34.8841L14.3269 34.5918L34.1317 14.5106L34.4126 14.2257L34.2849 13.8466C33.1065 10.3491 33.8759 6.33156 36.6211 3.55442L36.6221 3.55344C39.0937 1.04255 42.5549 0.166051 45.7298 0.901026L39.2784 7.4476L38.8285 7.90407L39.2786 8.36031L45.5187 14.6863Z" stroke="#2D68AC" stroke-width="1.3"/>
</svg>
