<svg width="40" height="62" viewBox="0 0 40 62" fill="none" xmlns="http://www.w3.org/2000/svg">
<path d="M3 0C1.34838 0 0 1.53099 0 3.40625V57.9062C0 59.7815 1.34838 61.3125 3 61.3125H36.6C38.2516 61.3125 39.6 59.7815 39.6 57.9062V3.40625C39.6 1.53099 38.2516 0 36.6 0H3ZM3 1.3625H36.6C37.6076 1.3625 38.4 2.26225 38.4 3.40625V57.9062C38.4 59.0503 37.6076 59.95 36.6 59.95H3C1.99242 59.95 1.2 59.0503 1.2 57.9062V3.40625C1.2 2.26225 1.99242 1.3625 3 1.3625ZM7.8 10.2188C7.46862 10.2188 7.2 10.5238 7.2 10.9C7.2 11.2763 7.46862 11.5812 7.8 11.5812H31.8C32.1314 11.5812 32.4 11.2763 32.4 10.9C32.4 10.5238 32.1314 10.2188 31.8 10.2188H7.8ZM7.8 22.4812C7.46862 22.4812 7.2 22.7863 7.2 23.1625C7.2 23.5388 7.46862 23.8438 7.8 23.8438H31.8C32.1314 23.8438 32.4 23.5388 32.4 23.1625C32.4 22.7863 32.1314 22.4812 31.8 22.4812H7.8ZM7.8 34.7437C7.46862 34.7437 7.2 35.0488 7.2 35.425C7.2 35.8013 7.46862 36.1062 7.8 36.1062H31.8C32.1314 36.1062 32.4 35.8013 32.4 35.425C32.4 35.0488 32.1314 34.7437 31.8 34.7437H7.8ZM34.1063 40.1724C33.975 40.2044 33.8539 40.2886 33.7688 40.4066L26.325 49.4971L21.9563 45.7715C21.7106 45.51 21.2659 45.5549 21.0647 45.8615C20.8635 46.1681 20.9528 46.6648 21.2438 46.8572L26.0438 50.9447C26.2773 51.1359 26.6337 51.0974 26.8313 50.8596L34.6313 41.322C34.9602 40.9291 34.6393 40.1419 34.1625 40.1724C34.1437 40.1724 34.1251 40.1724 34.1063 40.1724ZM7.8 47.0062C7.46862 47.0062 7.2 47.3113 7.2 47.6875C7.2 48.0638 7.46862 48.3687 7.8 48.3687H16.8C17.1314 48.3687 17.4 48.0638 17.4 47.6875C17.4 47.3113 17.1314 47.0062 16.8 47.0062H7.8Z" fill="#2D68AC"/>
</svg>
