<svg width="47" height="55" viewBox="0 0 47 55" fill="none" xmlns="http://www.w3.org/2000/svg">
<path d="M21.6997 53.7711L21.6994 53.771C16.7226 51.1851 0.625 41.0936 0.625 19.5561V11.6086C0.625 9.88106 1.94274 8.46028 3.62409 8.33657C10.0354 8.02863 16.1662 5.58439 21.0715 1.38819C22.2761 0.370594 24.0137 0.370606 25.2182 1.38821C30.1235 5.58443 36.2544 8.02864 42.6714 8.33657C44.3515 8.46019 45.6648 9.8798 45.6648 11.6086V19.5561C45.6648 41.0934 29.5677 51.185 24.6122 53.7714C23.6961 54.2476 22.6157 54.2475 21.6997 53.7711ZM36.3997 23.4527L36.4024 23.4502C37.4499 22.5095 37.5567 20.8885 36.6348 19.8227C35.7104 18.7483 34.1019 18.6309 33.0376 19.5646L33.035 19.5669L19.3997 31.6621L15.3087 27.5087L15.3088 27.5086L15.2999 27.5C14.2987 26.523 12.6998 26.5366 11.7186 27.5372C10.7361 28.5276 10.7233 30.134 11.6818 31.1439L11.6817 31.144L11.6901 31.1525L17.4764 37.0195L17.4781 37.0212C18.4317 37.9806 19.9547 38.0356 20.9713 37.1423L20.9735 37.1403L36.3997 23.4527Z" stroke="#2D68AC" stroke-width="1.25"/>
</svg>
