<svg width="53" height="62" viewBox="0 0 53 62" fill="none" xmlns="http://www.w3.org/2000/svg">
<path d="M43.3133 37.6506C45.0932 37.6506 45.9896 35.1654 44.7294 33.7219C43.4692 32.2784 41.2997 33.3052 41.2997 35.344C41.2997 36.6238 42.2091 37.6506 43.3133 37.6506ZM45.8337 38.231C43.82 40.5377 40.3903 39.3323 39.8186 36.1773L23.8392 36.222C23.2416 39.3471 19.8379 40.5079 17.8372 38.2161C16.668 36.8768 16.4471 34.7785 17.3305 33.1713L10.9907 25.5667C8.62629 27.2037 5.57331 25.2542 5.57331 22.0695C5.57331 18.8848 8.62629 16.9353 10.9907 18.5723L17.3305 10.9678C15.8625 8.27421 17.5514 4.71749 20.3575 4.71749C22.8129 4.71749 24.5278 7.50036 23.7353 10.1344L27.8016 13.2447C28.1524 13.5126 28.2563 14.0781 28.0095 14.4799C27.7756 14.8817 27.2819 15.0007 26.9312 14.718L22.9168 11.6524C21.7346 13.0512 19.8509 13.3042 18.4218 12.2327L12.108 19.7926C12.9135 21.1617 12.9135 22.9624 12.108 24.3315L18.4218 31.8914C20.5004 30.3437 23.3066 31.6682 23.8392 34.4362L39.8446 34.3915C40.4812 31.311 43.859 30.18 45.8337 32.442C47.2367 34.0641 47.2367 36.6387 45.8337 38.231ZM22.8908 16.4889H26.7493C27.178 16.4889 27.5288 16.8907 27.5288 17.3818V24.3613H29.5554V12.6792C29.5554 12.1881 29.9062 11.7863 30.3349 11.7863H34.1934C34.6221 11.7863 34.9729 12.1881 34.9729 12.6792V24.3613H36.9995V6.97951C36.9995 6.48841 37.3503 6.0866 37.779 6.0866H41.6374C42.0662 6.0866 42.4169 6.48841 42.4169 6.97951V24.3613H44.4046C44.8333 24.3613 45.1841 24.7631 45.1841 25.2542V29.1234C45.1841 29.6145 44.8333 30.0163 44.4046 30.0163H20.1107C19.682 30.0163 19.3312 29.6145 19.3312 29.1234V25.2542C19.3312 24.7631 19.682 24.3613 20.1107 24.3613H22.0984V17.3818C22.1114 16.8907 22.4621 16.4889 22.8908 16.4889ZM25.9698 18.2747H23.6703V24.3613H25.9698V18.2747ZM43.6511 26.1471C36.0771 26.1471 28.4901 26.1471 20.9162 26.1471V28.2305H43.6511V26.1471ZM40.8839 7.87241H38.5845V24.3613H40.8839V7.87241ZM33.4269 13.5572H31.1274V24.3613H33.4269V13.5572ZM20.3575 37.6506C22.1373 37.6506 23.0467 35.1654 21.7736 33.7219C20.5134 32.2784 18.3439 33.3052 18.3439 35.344C18.3568 36.6238 19.2533 37.6506 20.3575 37.6506ZM21.7866 7.20273C20.5264 5.75921 18.3568 6.78604 18.3568 8.82483C18.3568 10.8636 20.5264 11.8905 21.7866 10.4469C22.5661 9.55403 22.5661 8.09563 21.7866 7.20273ZM10.562 20.4623C9.30184 19.0188 7.13228 20.0456 7.13228 22.0844C7.13228 24.1232 9.30184 25.1649 10.562 23.7065C11.3415 22.8136 11.3415 21.3552 10.562 20.4623ZM9.11996 51.7585C12.6666 50.2554 16.1483 47.7702 18.3568 44.5706H3.26084C1.46803 44.5706 0 42.889 0 40.8353V3.7353C0.0129914 1.68163 1.46803 0 3.26084 0H49.6142C51.407 0 52.875 1.68163 52.875 3.7353V40.8502C52.875 42.9039 51.407 44.5855 49.6142 44.5855H34.5182C35.3626 45.8058 36.4539 46.9963 37.727 48.0827C39.4289 49.5262 41.4556 50.7912 43.755 51.7585C44.0668 51.8626 44.3137 52.2049 44.3137 52.6067V60.4196C44.3137 60.9107 43.9629 61.3125 43.5342 61.3125H9.35381C8.92509 61.3125 8.57432 60.9107 8.57432 60.4196V52.6067C8.57432 52.2198 8.80817 51.8775 9.11996 51.7585ZM20.2926 44.5706C18.5907 47.5023 15.9015 49.9578 13.0044 51.7138H39.8836C36.9865 49.9578 34.2973 47.5023 32.5954 44.5706H20.2926ZM10.1333 59.5267H42.7547V53.4996H10.1333V59.5267ZM49.6271 1.7858H3.26084C2.32546 1.7858 1.55897 2.66382 1.55897 3.7353V40.8502C1.55897 41.9217 2.32546 42.7997 3.26084 42.7997H49.6142C50.5495 42.7997 51.316 41.9217 51.316 40.8502V3.7353C51.316 2.66382 50.5495 1.7858 49.6271 1.7858Z" fill="#2D68AC"/>
</svg>
