<svg width="18" height="20" viewBox="0 0 18 20" fill="none" xmlns="http://www.w3.org/2000/svg">
<path d="M17.0535 8.43443L2.56122 0.453416C2.31689 0.318727 2.03704 0.245197 1.75058 0.240422C1.46413 0.235646 1.18145 0.299798 0.931743 0.426251C0.684413 0.550741 0.478381 0.732289 0.334833 0.952227C0.191286 1.17216 0.115403 1.42255 0.11499 1.67764V17.6379C0.116854 18.0205 0.287427 18.3868 0.589213 18.6563C0.890999 18.9258 1.2993 19.0763 1.72435 19.0749C2.02103 19.0748 2.31195 19.0012 2.56525 18.8621L17.0535 10.8811C17.2864 10.7533 17.4789 10.5737 17.6124 10.3597C17.746 10.1456 17.8161 9.90419 17.8161 9.65866C17.8161 9.41314 17.746 9.17174 17.6124 8.95766C17.4789 8.74359 17.2864 8.56403 17.0535 8.43625V8.43443ZM1.72435 17.6207V1.68941L16.1915 9.65776L1.72435 17.6207Z" fill="white"/>
</svg>
